<svg width="26" height="381" viewBox="0 0 26 381" fill="none" xmlns="http://www.w3.org/2000/svg">
<g clip-path="url(#clip0_0_1)">
<rect width="26" height="381" fill="#00A400"/>
<path d="M6.18182 159.803V158.13H15.331C16.2756 158.13 17.119 158.352 17.8612 158.798C18.5988 159.238 19.1813 159.861 19.6087 160.667C20.0315 161.472 20.2429 162.416 20.2429 163.5C20.2429 164.584 20.0315 165.529 19.6087 166.334C19.1813 167.139 18.5988 167.765 17.8612 168.21C17.119 168.651 16.2756 168.871 15.331 168.871H6.18182V167.198H15.196C15.8707 167.198 16.4712 167.049 16.9975 166.753C17.5193 166.456 17.9309 166.033 18.2322 165.484C18.5291 164.931 18.6776 164.27 18.6776 163.5C18.6776 162.731 18.5291 162.07 18.2322 161.517C17.9309 160.963 17.5193 160.541 16.9975 160.248C16.4712 159.951 15.8707 159.803 15.196 159.803H6.18182ZM13.7656 153.412H20V155.004H9.63636V153.466H11.2557V153.331C10.7294 153.088 10.3066 152.719 9.98722 152.224C9.66335 151.729 9.50142 151.091 9.50142 150.308C9.50142 149.606 9.64536 148.992 9.93324 148.466C10.2166 147.94 10.6484 147.53 11.2287 147.238C11.8045 146.946 12.5331 146.799 13.4148 146.799H20L20 148.392H13.5227C12.7086 148.392 12.0743 148.603 11.62 149.026C11.1612 149.449 10.9318 150.029 10.9318 150.767C10.9318 151.275 11.042 151.729 11.2624 152.13C11.4828 152.526 11.8045 152.838 12.2273 153.068C12.6501 153.297 13.1629 153.412 13.7656 153.412ZM20.2159 139.68C20.2159 140.615 19.9933 141.436 19.5479 142.142C19.1026 142.844 18.4796 143.393 17.679 143.789C16.8783 144.18 15.9427 144.376 14.8722 144.376C13.7926 144.376 12.8503 144.18 12.0451 143.789C11.2399 143.393 10.6147 142.844 10.1694 142.142C9.72408 141.436 9.50142 140.615 9.50142 139.68C9.50142 138.744 9.72408 137.925 10.1694 137.224C10.6147 136.517 11.2399 135.969 12.0451 135.577C12.8503 135.181 13.7926 134.984 14.8722 134.984C15.9427 134.984 16.8783 135.181 17.679 135.577C18.4796 135.969 19.1026 136.517 19.5479 137.224C19.9933 137.925 20.2159 138.744 20.2159 139.68ZM18.7855 139.68C18.7855 138.969 18.6033 138.384 18.239 137.925C17.8746 137.466 17.3956 137.127 16.8018 136.906C16.2081 136.686 15.5649 136.576 14.8722 136.576C14.1795 136.576 13.534 136.686 12.9357 136.906C12.3375 137.127 11.8539 137.466 11.4851 137.925C11.1162 138.384 10.9318 138.969 10.9318 139.68C10.9318 140.39 11.1162 140.975 11.4851 141.434C11.8539 141.893 12.3375 142.232 12.9357 142.453C13.534 142.673 14.1795 142.783 14.8722 142.783C15.5649 142.783 16.2081 142.673 16.8018 142.453C17.3956 142.232 17.8746 141.893 18.239 141.434C18.6033 140.975 18.7855 140.39 18.7855 139.68ZM9.63636 127.938H10.9858L10.9858 133.524H9.63636L9.63636 127.938ZM20 131.851H8.20597C7.61222 131.851 7.11742 131.712 6.72159 131.433C6.32576 131.154 6.02888 130.792 5.83096 130.347C5.63305 129.901 5.53409 129.431 5.53409 128.936C5.53409 128.545 5.56558 128.226 5.62855 127.978C5.69152 127.731 5.75 127.546 5.80398 127.425L7.1804 127.884C7.15341 127.965 7.11967 128.077 7.07919 128.221C7.03871 128.361 7.01846 128.545 7.01846 128.774C7.01846 129.301 7.15116 129.681 7.41655 129.915C7.68194 130.144 8.07102 130.259 8.58381 130.259H20V131.851ZM9.63636 121.091H10.9858V126.678H9.63636V121.091ZM20 125.004H8.20597C7.61222 125.004 7.11742 124.865 6.72159 124.586C6.32576 124.307 6.02888 123.945 5.83096 123.5C5.63305 123.055 5.53409 122.585 5.53409 122.09C5.53409 121.698 5.56558 121.379 5.62855 121.132C5.69152 120.884 5.75 120.7 5.80398 120.578L7.1804 121.037C7.15341 121.118 7.11967 121.231 7.07919 121.375C7.03871 121.514 7.01846 121.698 7.01846 121.928C7.01846 122.454 7.15116 122.834 7.41655 123.068C7.68194 123.297 8.07102 123.412 8.58381 123.412H20V125.004ZM20 118.86H9.63636V117.267H20V118.86ZM7.90909 118.05C7.90909 118.36 7.80339 118.628 7.59197 118.853C7.38056 119.073 7.12642 119.183 6.82955 119.183C6.53267 119.183 6.27853 119.073 6.06712 118.853C5.85571 118.628 5.75 118.36 5.75 118.05C5.75 117.739 5.85571 117.474 6.06712 117.254C6.27853 117.029 6.53267 116.916 6.82955 116.916C7.12642 116.916 7.38056 117.029 7.59197 117.254C7.80339 117.474 7.90909 117.739 7.90909 118.05ZM20.2159 110.14C20.2159 111.112 19.9865 111.949 19.5277 112.65C19.0689 113.352 18.4369 113.892 17.6317 114.27C16.8266 114.648 15.9067 114.837 14.8722 114.837C13.8196 114.837 12.8907 114.643 12.0856 114.256C11.2759 113.865 10.6439 113.321 10.1896 112.623C9.73082 111.922 9.50142 111.103 9.50142 110.167C9.50142 109.439 9.63636 108.782 9.90625 108.197C10.1761 107.613 10.554 107.134 11.0398 106.76C11.5256 106.387 12.0923 106.155 12.7401 106.065V107.658C12.2678 107.779 11.8494 108.049 11.4851 108.467C11.1162 108.881 10.9318 109.439 10.9318 110.14C10.9318 110.761 11.0937 111.306 11.4176 111.773C11.737 112.237 12.189 112.599 12.7738 112.86C13.354 113.116 14.0355 113.244 14.8182 113.244C15.6188 113.244 16.3161 113.118 16.9098 112.866C17.5036 112.61 17.9646 112.25 18.293 111.787C18.6213 111.319 18.7855 110.77 18.7855 110.14C18.7855 109.727 18.7135 109.351 18.5696 109.014C18.4257 108.676 18.2188 108.391 17.9489 108.157C17.679 107.923 17.3551 107.756 16.9773 107.658V106.065C17.589 106.155 18.14 106.378 18.6303 106.733C19.1161 107.084 19.503 107.55 19.7908 108.13C20.0742 108.706 20.2159 109.376 20.2159 110.14ZM20.2429 100.688C20.2429 101.344 20.1192 101.94 19.8718 102.476C19.6199 103.011 19.2578 103.436 18.7855 103.751C18.3087 104.066 17.733 104.223 17.0582 104.223C16.4645 104.223 15.9832 104.106 15.6143 103.872C15.241 103.638 14.9486 103.326 14.7372 102.935C14.5258 102.543 14.3684 102.111 14.2649 101.639C14.157 101.162 14.0715 100.683 14.0085 100.202C13.9276 99.5722 13.8668 99.0617 13.8263 98.6703C13.7814 98.2745 13.7071 97.9866 13.6037 97.8067C13.5002 97.6223 13.3203 97.5301 13.0639 97.5301H13.0099C12.3442 97.5301 11.8269 97.7122 11.4581 98.0766C11.0893 98.4364 10.9048 98.9829 10.9048 99.7161C10.9048 100.476 11.0713 101.072 11.4041 101.504C11.737 101.936 12.0923 102.24 12.4702 102.415L11.9304 103.926C11.3007 103.656 10.8104 103.297 10.4595 102.847C10.1042 102.393 9.85677 101.898 9.71733 101.362C9.57339 100.823 9.50142 100.292 9.50142 99.7701C9.50142 99.4372 9.5419 99.0549 9.62287 98.6231C9.69934 98.1868 9.85902 97.7662 10.1019 97.3614C10.3448 96.952 10.7114 96.6124 11.2017 96.3426C11.692 96.0727 12.3487 95.9377 13.1719 95.9377H20V97.5301H18.5966V97.611C18.8215 97.719 19.0621 97.8989 19.3185 98.1508C19.5749 98.4027 19.7931 98.7378 19.973 99.1561C20.1529 99.5744 20.2429 100.085 20.2429 100.688ZM18.8125 100.445C18.8125 99.8151 18.6888 99.2843 18.4414 98.8525C18.194 98.4162 17.8746 98.0878 17.4833 97.8674C17.092 97.6425 16.6804 97.5301 16.2486 97.5301H14.7912C14.8722 97.5975 14.9464 97.746 15.0138 97.9754C15.0768 98.2003 15.133 98.4612 15.1825 98.758C15.2275 99.0504 15.268 99.336 15.304 99.6149C15.3355 99.8893 15.3625 100.112 15.3849 100.283C15.4389 100.697 15.5266 101.084 15.6481 101.443C15.765 101.799 15.9427 102.087 16.1811 102.307C16.415 102.523 16.7344 102.631 17.1392 102.631C17.6925 102.631 18.1108 102.426 18.3942 102.017C18.6731 101.603 18.8125 101.079 18.8125 100.445ZM6.18182 91.4391H20V93.0314H6.18182V91.4391ZM20 78.6987V82.9629H6.18182L6.18182 78.5098C6.18182 77.1694 6.45845 76.0224 7.01172 75.0688C7.56049 74.1152 8.3499 73.3842 9.37997 72.8759C10.4055 72.3676 11.6335 72.1135 13.0639 72.1135C14.5033 72.1135 15.7425 72.3699 16.7816 72.8827C17.8162 73.3955 18.6123 74.1421 19.1701 75.1227C19.7234 76.1033 20 77.2953 20 78.6987ZM18.5156 81.2896V78.8067C18.5156 77.6642 18.2952 76.7173 17.8544 75.9661C17.4136 75.2149 16.7861 74.6549 15.9719 74.2861C15.1578 73.9172 14.1884 73.7328 13.0639 73.7328C11.9484 73.7328 10.988 73.915 10.1829 74.2793C9.37322 74.6437 8.75249 75.188 8.32067 75.9122C7.88435 76.6363 7.66619 77.5382 7.66619 78.6178V81.2896H18.5156ZM20 69.5226H9.63636V67.9842H11.2017V67.8763C10.6889 67.6874 10.2728 67.3455 9.95348 66.8507C9.63411 66.3559 9.47443 65.7982 9.47443 65.1774C9.47443 65.0605 9.47668 64.9143 9.48118 64.7389C9.48568 64.5634 9.49242 64.4307 9.50142 64.3408H11.1207C11.1072 64.3948 11.087 64.5185 11.06 64.7119C11.0285 64.9008 11.0128 65.101 11.0128 65.3124C11.0128 65.8162 11.1185 66.266 11.3299 66.6618C11.5368 67.0531 11.8247 67.3635 12.1935 67.5929C12.5579 67.8178 12.974 67.9303 13.4418 67.9303H20V69.5226ZM20.2429 59.4035C20.2429 60.0603 20.1192 60.6563 19.8718 61.1915C19.6199 61.7268 19.2578 62.1519 18.7855 62.4668C18.3087 62.7816 17.733 62.9391 17.0582 62.9391C16.4645 62.9391 15.9832 62.8221 15.6143 62.5882C15.241 62.3543 14.9486 62.0417 14.7372 61.6503C14.5258 61.259 14.3684 60.8272 14.2649 60.3549C14.157 59.8781 14.0715 59.399 14.0085 58.9177C13.9276 58.288 13.8668 57.7775 13.8263 57.3861C13.7814 56.9903 13.7071 56.7024 13.6037 56.5225C13.5002 56.3381 13.3203 56.2459 13.0639 56.2459H13.0099C12.3442 56.2459 11.8269 56.428 11.4581 56.7924C11.0893 57.1522 10.9048 57.6988 10.9048 58.432C10.9048 59.1921 11.0713 59.7881 11.4041 60.2199C11.737 60.6518 12.0923 60.9554 12.4702 61.1308L11.9304 62.6422C11.3007 62.3723 10.8104 62.0124 10.4595 61.5626C10.1042 61.1083 9.85677 60.6135 9.71733 60.0783C9.57339 59.5385 9.50142 59.0077 9.50142 58.4859C9.50142 58.1531 9.5419 57.7707 9.62287 57.3389C9.69934 56.9026 9.85902 56.482 10.1019 56.0772C10.3448 55.6679 10.7114 55.3283 11.2017 55.0584C11.692 54.7885 12.3487 54.6535 13.1719 54.6535H20V56.2459H18.5966V56.3268C18.8215 56.4348 19.0621 56.6147 19.3185 56.8666C19.5749 57.1185 19.7931 57.4536 19.973 57.8719C20.1529 58.2903 20.2429 58.8008 20.2429 59.4035ZM18.8125 59.1606C18.8125 58.5309 18.6888 58.0001 18.4414 57.5683C18.194 57.132 17.8746 56.8036 17.4833 56.5832C17.092 56.3583 16.6804 56.2459 16.2486 56.2459H14.7912C14.8722 56.3133 14.9464 56.4618 15.0138 56.6912C15.0768 56.9161 15.133 57.177 15.1825 57.4739C15.2275 57.7662 15.268 58.0519 15.304 58.3307C15.3355 58.6051 15.3625 58.8278 15.3849 58.9987C15.4389 59.4125 15.5266 59.7994 15.6481 60.1592C15.765 60.5146 15.9427 60.8025 16.1811 61.0229C16.415 61.2388 16.7344 61.3467 17.1392 61.3467C17.6925 61.3467 18.1108 61.1421 18.3942 60.7327C18.6731 60.3189 18.8125 59.7949 18.8125 59.1606ZM9.63636 47.1321H10.9858V52.7188H9.63636V47.1321ZM20 51.0455H8.20597C7.61222 51.0455 7.11742 50.9061 6.72159 50.6272C6.32576 50.3483 6.02888 49.9862 5.83096 49.5409C5.63305 49.0956 5.53409 48.6255 5.53409 48.1307C5.53409 47.7394 5.56558 47.42 5.62855 47.1726C5.69152 46.9252 5.75 46.7408 5.80398 46.6194L7.1804 47.0782C7.15341 47.1591 7.11967 47.2716 7.07919 47.4155C7.03871 47.555 7.01846 47.7394 7.01846 47.9688C7.01846 48.4951 7.15116 48.8752 7.41655 49.1091C7.68194 49.3385 8.07102 49.4532 8.58381 49.4532H20V51.0455ZM9.63636 40.3934H10.9858V45.7642H9.63636V40.3934ZM7.15341 44.1988V42.6065H17.0313C17.4811 42.6065 17.8184 42.5413 18.0433 42.4108C18.2637 42.2759 18.4122 42.105 18.4886 41.898C18.5606 41.6866 18.5966 41.464 18.5966 41.2301C18.5966 41.0546 18.5876 40.9107 18.5696 40.7983C18.5471 40.6858 18.5291 40.5958 18.5156 40.5284L19.946 40.2045C19.9865 40.3125 20.027 40.4631 20.0675 40.6566C20.1125 40.85 20.1349 41.0951 20.1349 41.392C20.1349 41.8418 20.0382 42.2826 19.8448 42.7144C19.6514 43.1418 19.3568 43.4971 18.9609 43.7805C18.5651 44.0594 18.0658 44.1988 17.4631 44.1988H7.15341Z" fill="white"/>
</g>
<defs>
<clipPath id="clip0_0_1">
<rect width="26" height="381" fill="white"/>
</clipPath>
</defs>
</svg>
