<svg width="26" height="381" viewBox="0 0 26 381" fill="none" xmlns="http://www.w3.org/2000/svg">
<g clip-path="url(#clip0_3_2)">
<rect width="26" height="381" fill="#00A400"/>
<path d="M6.396 140.758L6.396 134.469H8.524V140.758H6.396ZM15.193 140.758V134.146H17.321V140.758H15.193ZM10.804 140.91V134.906H12.856V140.91H10.804ZM6.396 151.189V145.451H8.524V151.189H6.396ZM10.804 150.999V145.565H12.856V150.999H10.804ZM3.964 141.917V139.637H21.71V141.917H3.964ZM15.364 152.006C15.117 149.783 14.68 146.306 14.224 143.038L16.238 142.943C16.732 145.983 17.245 149.194 17.606 151.588L15.364 152.006ZM3.964 146.534V144.292H12.856C15.459 144.292 19.696 145.242 21.938 149.859C21.406 150.22 20.684 150.961 20.247 151.493C18.499 147.332 14.87 146.534 12.875 146.534H3.964ZM8.695 129.206V126.945H21.672V129.206H8.695ZM8.695 128.028V118.889H14.072V128.028H12.115V121.169H10.652V128.028H8.695ZM15.288 128.085V117.749H21.596V120.029H17.283V128.085H15.288ZM18.936 128.028V118.699H20.931V128.028H18.936ZM3.926 125.273V122.841H7.289V125.273H3.926ZM5.294 132.227L5.294 115.849H10.006V118.167H7.441L7.441 130.004H10.006V132.227H5.294ZM6.909 113.626L6.909 96.393H9.094L9.094 113.626H6.909ZM11.564 107.28L11.564 100.003H13.73L13.73 107.28H11.564ZM11.564 100.839V98.483C11.564 98.483 12.248 98.502 12.552 98.559C17.758 98.901 19.905 99.3 20.741 100.06C21.349 100.63 21.539 101.238 21.634 102.112C21.691 102.834 21.672 104.107 21.634 105.38C20.969 105.418 20.019 105.76 19.392 106.197C19.506 104.886 19.506 103.537 19.506 102.986C19.506 102.568 19.487 102.302 19.278 102.055C18.784 101.485 16.618 101.124 11.925 100.858L11.564 100.839ZM8.201 108.135V105.57C13.293 105.855 18.841 106.368 21.843 112.334C21.235 112.676 20.399 113.36 19.924 113.968C17.359 108.439 12.533 108.325 8.201 108.135ZM3.774 106.292V103.936H7.764V106.292H3.774ZM16.884 94.512L16.884 77.45H18.917L18.917 94.512H16.884ZM14.68 87.235V84.936H21.691V87.235H14.68ZM12.894 90.427H13.996V81.706H12.894V90.427ZM10.196 90.427H11.279V81.706H10.196V90.427ZM8.467 92.612V79.407H15.725V92.612H8.467ZM3.869 90.446V88.223H8.163V90.446H3.869ZM3.869 83.834V81.611H8.163V83.834H3.869ZM4.952 94.436L4.952 77.526H6.966L6.966 94.436H4.952ZM3.888 68.159V65.879H6.415L6.415 68.159H3.888ZM14.243 68.216V65.917H21.691V68.216H14.243ZM5.142 75.151L5.142 58.811H8.068V61.015H7.023L7.023 73.042H8.068L8.068 75.151H5.142ZM8.429 75.284L8.429 58.678H10.215L10.215 75.284H8.429ZM15.554 75.645L15.554 58.336H17.435V75.645H15.554ZM6.909 69.071L7.536 66.943C9.246 68.178 11.26 69.755 12.571 70.857L11.982 73.023C10.652 71.826 8.543 70.211 6.909 69.071ZM12.077 71.484L10.728 70.23C11.317 66.886 12.552 62.098 13.559 59.495L15.155 60.844C14.148 63.219 12.799 67.969 12.077 71.484ZM16.637 68.786L17.378 67.095C19.297 68.843 20.817 71.788 21.52 74.695C20.988 74.999 20.114 75.645 19.677 76.101C19.183 73.27 18.043 70.287 16.637 68.786ZM16.58 65.366C17.967 63.77 19.107 60.711 19.582 57.823C20.057 58.317 20.931 58.963 21.501 59.267C20.798 62.174 19.259 65.195 17.302 67L16.58 65.366ZM9.493 64.131V61.737C12.932 62.953 14.509 65.556 15.098 74.068C14.566 74.144 13.787 74.505 13.331 74.809C12.932 66.924 11.792 65.062 9.493 64.131Z" fill="white"/>
</g>
<defs>
<clipPath id="clip0_3_2">
<rect width="26" height="381" fill="white"/>
</clipPath>
</defs>
</svg>
